<svg width="240" height="48" viewBox="0 0 240 48" fill="none" xmlns="http://www.w3.org/2000/svg">
  <rect x="2" y="6" width="36" height="36" rx="10" fill="#111827"/>
  <path d="M24 16L16 32H20L22 27H30L32 32H36L28 16H24ZM23.6 24L26 19.2L28.4 24H23.6Z" fill="#ffffff"/>
  <path d="M52 34V14H65.2C70.6 14 74.2 17.1 74.2 21.8C74.2 26.5 70.6 29.6 65.2 29.6H57.3V34H52ZM57.3 25.5H64.6C67.2 25.5 68.8 24.2 68.8 21.8C68.8 19.4 67.2 18.1 64.6 18.1H57.3V25.5Z" fill="#111827"/>
  <path d="M78.3 34V14H91.8C97 14 100.5 16.8 100.5 21.1C100.5 23.9 99 26.1 96.5 27.2L101.4 34H95.3L91.1 28.2H83.6V34H78.3ZM83.6 24.4H91.2C93.6 24.4 95.1 23.3 95.1 21.1C95.1 18.9 93.6 17.8 91.2 17.8H83.6V24.4Z" fill="#111827"/>
  <path d="M105 34V14H110.3V34H105Z" fill="#111827"/>
  <path d="M114.8 34V14H120.1V29.6H134.3V34H114.8Z" fill="#111827"/>
  <path d="M136.9 34V14H142.2V24L151.8 14H158.8L148.6 24.5L159.3 34H152.2L142.2 25V34H136.9Z" fill="#111827"/>
</svg>
